<?xml version="1.0" standalone="no"?>
<!DOCTYPE svg PUBLIC "-//W3C//DTD SVG 20010904//EN"
 "http://www.w3.org/TR/2001/REC-SVG-20010904/DTD/svg10.dtd">
<svg version="1.0" xmlns="http://www.w3.org/2000/svg"
 width="128.000000pt" height="128.000000pt" viewBox="0 0 128.000000 128.000000"
 preserveAspectRatio="xMidYMid meet">
<metadata>
Created by potrace 1.11, written by Peter Selinger 2001-2013
</metadata>
<g transform="translate(0.000000,128.000000) scale(0.100000,-0.100000)"
fill="#000000" stroke="none">
<path d="M330 1214 c-57 -41 -70 -88 -40 -149 19 -40 20 -61 20 -514 l0 -473
29 -29 c49 -49 137 -30 157 34 3 12 83 99 177 194 l171 171 29 -24 c49 -42
134 -22 152 36 4 11 12 20 19 20 7 0 23 11 36 25 19 20 25 39 28 93 4 60 8 70
38 100 28 28 34 40 34 77 0 38 -7 52 -49 103 -164 197 -430 332 -686 348 -76
5 -94 3 -115 -12z"/>
</g>
</svg>
